<svg width="25" height="25" fill="none" xmlns="http://www.w3.org/2000/svg"><g clip-path="url(#clip0)" fill="#fff"><path d="M23.836 4.022a.751.751 0 00-.577-.27H5.624l-.653-2.445A.749.749 0 004.247.75H.75a.75.75 0 000 1.501h2.92l.646 2.418c.001.009-.002.018.001.028l2.401 8.974c0 .001.002.001.002.003l.809 3.026a.749.749 0 00.724.557h12.005a.75.75 0 000-1.5H8.83l-.422-1.58 13.388-.673a.752.752 0 00.701-.614l1.5-8.253a.746.746 0 00-.161-.615zm-13.332 6.482a.75.75 0 01-1.5 0v-3a.75.75 0 011.5 0v3zm4.502 0a.75.75 0 01-1.5 0v-3a.75.75 0 011.5 0v3zm4.502 0a.75.75 0 01-1.5 0v-3a.75.75 0 011.5 0v3zM9.754 23.26a2.25 2.25 0 100-4.502 2.25 2.25 0 000 4.502zm9.004 0a2.25 2.25 0 100-4.502 2.25 2.25 0 000 4.502z"/></g><defs><clipPath id="clip0"><path fill="#fff" d="M0 0h24.01v24.01H0z"/></clipPath></defs></svg>