<svg width="17" height="17" fill="none" xmlns="http://www.w3.org/2000/svg"><g clip-path="url(#clip0)" fill="#000"><path d="M16.877 2.847a.532.532 0 00-.409-.19H3.982L3.52.924A.53.53 0 003.007.53H.53a.531.531 0 000 1.063H2.6l.457 1.711v.02l1.7 6.354.002.002.572 2.143a.53.53 0 00.514.395h8.5a.531.531 0 000-1.063H6.252l-.299-1.118 9.48-.477a.533.533 0 00.496-.434l1.062-5.844a.528.528 0 00-.114-.436zm-9.44 4.59a.531.531 0 01-1.062 0V5.312a.531.531 0 011.062 0v2.125zm3.188 0a.531.531 0 01-1.063 0V5.312a.531.531 0 011.063 0v2.125zm3.187 0a.531.531 0 01-1.062 0V5.312a.531.531 0 011.062 0v2.125zm-6.906 9.032a1.594 1.594 0 100-3.188 1.594 1.594 0 000 3.188zm6.375 0a1.594 1.594 0 100-3.188 1.594 1.594 0 000 3.188z"/></g><defs><clipPath id="clip0"><path fill="#fff" d="M0 0h17v17H0z"/></clipPath></defs></svg>