<svg width="12" height="12" fill="none" xmlns="http://www.w3.org/2000/svg"><mask id="a" fill="#fff"><path d="M10.688 3.112a.382.382 0 00-.54 0L5.406 7.865.65 3.112a.382.382 0 00-.54.54l5.015 5.013a.373.373 0 00.27.112.388.388 0 00.27-.112l5.013-5.014a.374.374 0 00.01-.54z"/></mask><path d="M10.688 3.112a.382.382 0 00-.54 0L5.406 7.865.65 3.112a.382.382 0 00-.54.54l5.015 5.013a.373.373 0 00.27.112.388.388 0 00.27-.112l5.013-5.014a.374.374 0 00.01-.54z" fill="#fff"/><path d="M10.149 3.112L8.735 1.697l-.002.002 1.416 1.413zM5.405 7.865L3.99 9.28l1.416 1.416L6.82 9.278 5.405 7.865zM.65 3.112l1.414-1.415L.651 3.112zm-.54.54l1.415-1.415L.112 3.651zm5.015 5.013L3.71 10.08l1.415-1.414zm.54 0l1.413 1.414-1.414-1.414zm5.013-5.014L9.31 2.195l-.023.02-.021.022 1.414 1.414zm1.424-1.954a2.382 2.382 0 00-3.368 0l2.828 2.829a1.618 1.618 0 01-2.289 0l2.829-2.829zm-3.37.002L3.99 6.452l2.83 2.826 4.744-4.754L8.734 1.7zM6.82 6.45L2.065 1.697-.763 4.526 3.99 9.279l2.83-2.828zM2.065 1.697a2.382 2.382 0 00-3.368 0l2.829 2.829a1.618 1.618 0 01-2.29 0l2.83-2.829zm-3.368 0c-.93.93-.93 2.438 0 3.368l2.829-2.828a1.618 1.618 0 010 2.289l-2.829-2.829zm0 3.368l5.014 5.014L6.54 7.251 1.526 2.237l-2.829 2.828zm5.014 5.014a2.372 2.372 0 001.684.698v-4c.419 0 .837.166 1.145.474l-2.83 2.828zm1.684.698c.588 0 1.21-.224 1.684-.698L4.251 7.251a1.612 1.612 0 011.144-.474v4zm1.684-.698l5.014-5.014-2.828-2.828L4.25 7.251l2.828 2.828zm4.97-4.971c.99-.931.992-2.473.054-3.41L9.274 4.525a1.626 1.626 0 01.034-2.331l2.742 2.913z" fill="#fff" mask="url(#a)"/></svg>